<svg width="320" height="40" xmlns="http://www.w3.org/2000/svg"><rect width="100%" height="100%" fill="none"/><path d="M37.915 6.537v30.936h-7.536V20.022l-7.183 17.45h-5.597l-7.182-17.45v17.45H2.88V6.538h8.637l8.902 21.329 8.857-21.329ZM54.197 37.781q-5.376 0-8.813-3.437-3.437-3.481-3.437-9.21 0-5.729 3.393-9.122 3.437-3.393 8.857-3.393t8.99 3.349q3.57 3.349 3.57 9.298 0 1.278-.177 2.38H49.658q.22 1.63 1.455 2.688 1.234 1.013 2.644 1.013 1.454 0 2.159-.264.705-.309 1.014-.573.352-.308.88-.97h8.153q-1.057 3.702-4.23 5.994-3.173 2.247-7.536 2.247zm4.716-14.85q-.177-1.72-1.499-2.777-1.322-1.101-3.128-1.101-1.807 0-3.041 1.101-1.234 1.058-1.542 2.776z" style="font-variant:normal;font-weight:700;font-stretch:normal;font-size:60.1516px;font-family:Poppins;-inkscape-font-specification:Poppins-Bold;writing-mode:lr-tb;fill:#006843;fill-opacity:1;fill-rule:nonzero;stroke:none"/><path d="m92.073 12.883-7.932 11.898 7.932 12.692h-8.46l-4.01-6.39-3.967 6.39H68.19l7.976-11.898-7.976-12.692h8.46l4.01 6.39 3.967-6.39zM104.522 10.107q-1.278 1.278-3.128 1.278-1.851 0-3.13-1.278-1.277-1.278-1.277-3.129 0-1.895 1.278-3.173t3.129-1.278q1.85 0 3.128 1.278t1.278 3.173q0 1.85-1.278 3.129zm-6.874 27.366v-24.59h7.535v24.59z" style="font-variant:normal;font-weight:700;font-stretch:normal;font-size:60.1516px;font-family:Poppins;-inkscape-font-specification:Poppins-Bold;writing-mode:lr-tb;fill:#000;fill-opacity:1;fill-rule:nonzero;stroke:none"/><path d="M112.653 34.344q-3.393-3.437-3.393-9.166 0-5.729 3.393-9.122 3.437-3.437 8.857-3.437 4.495 0 7.624 2.247 3.129 2.204 4.142 6.346h-8.152q-1.058-2.204-3.482-2.204-2.38 0-3.569 1.72-1.146 1.674-1.146 4.45 0 2.776 1.146 4.495 1.19 1.674 3.437 1.674 1.41 0 2.204-.484.793-.485 1.41-1.719h8.152q-1.013 3.966-4.186 6.302-3.173 2.335-7.58 2.335-5.42 0-8.857-3.437zM152.886 29.76q1.498-1.586 1.498-4.582 0-2.997-1.542-4.539-1.542-1.586-3.657-1.586-2.116 0-3.658 1.586-1.498 1.542-1.498 4.539 0 2.996 1.542 4.583 1.586 1.586 3.702 1.586 2.115 0 3.613-1.586zm-12.823 4.54q-3.702-3.481-3.702-9.166 0-5.685 3.702-9.078 3.701-3.437 9.166-3.437 5.464 0 9.122 3.437 3.701 3.393 3.701 9.078t-3.657 9.166q-3.658 3.481-9.122 3.481-5.465 0-9.21-3.481z" style="font-variant:normal;font-weight:700;font-stretch:normal;font-size:60.1516px;font-family:Poppins;-inkscape-font-specification:Poppins-Bold;writing-mode:lr-tb;fill:red;fill-opacity:1;fill-rule:nonzero;stroke:none"/><path d="M174.127 31.744h3.349q4.318 0 6.786-2.644t2.468-7.095q0-4.45-2.468-7.095-2.468-2.644-6.786-2.644h-3.35zm3.349-25.207q7.403 0 12.162 4.319 4.76 4.275 4.76 11.15 0 6.83-4.76 11.148-4.759 4.319-12.162 4.319H166.59V6.537ZM209.486 37.781q-5.376 0-8.813-3.437-3.437-3.481-3.437-9.21 0-5.729 3.393-9.122 3.437-3.393 8.857-3.393t8.99 3.349q3.57 3.349 3.57 9.298 0 1.278-.177 2.38h-16.922q.22 1.63 1.455 2.688 1.233 1.013 2.644 1.013 1.454 0 2.159-.264.705-.309 1.013-.573.353-.308.882-.97h8.152q-1.057 3.702-4.23 5.994-3.173 2.247-7.536 2.247zm4.715-14.85q-.176-1.72-1.498-2.777-1.322-1.101-3.129-1.101-1.806 0-3.04 1.101-1.234 1.058-1.543 2.776zM223.478 12.883h8.02l5.596 18.288 5.597-18.288h8.02l-8.725 24.59h-9.783z" style="font-variant:normal;font-weight:700;font-stretch:normal;font-size:60.1516px;font-family:Poppins;-inkscape-font-specification:Poppins-Bold;writing-mode:lr-tb;fill:#000;fill-opacity:1;fill-rule:nonzero;stroke:none"/><path d="m317.692 16.05-15.09-7.938-11.263-5.926v8.694L308.674 20l-17.335 9.12v8.694l11.263-5.926 15.09-7.94z" style="fill-opacity:1;fill-rule:evenodd;stroke:none" stroke-width="0" fill="red"/><path d="M283.685 10.88V2.186l-11.263 5.926-15.09 7.939v7.898l15.09 7.939 11.263 5.926V29.12L266.35 20z" style="fill:#006843;fill-opacity:1;fill-rule:evenodd;stroke:none"/></svg>